<?xml version="1.0" encoding="UTF-8" standalone="no"?>
<!-- Created with Inkscape (http://www.inkscape.org/) -->

<svg
   xmlns="http://www.w3.org/2000/svg"
   viewBox="0 0 20.529023 20.118654">
  <g
     id="layer1"
     transform="translate(21.964896,0.36997494)">
    <path
       id="path1726"
       style="fill:#000000;stroke-width:0.21166867"
       d="m -16.023876,7.9633991 c 0.44317,0 0.913138,-0.2717006 1.409901,-0.8129287 0.265903,-0.2803947 0.399885,-0.5238382 0.399885,-0.7303314 0,-0.2434437 -0.214372,-0.3651658 -0.638991,-0.3651658 -0.496763,0 -0.915199,0.2347494 -1.251183,0.7020753 -0.17727,0.2238806 -0.265903,0.4586301 -0.265903,0.7020744 0,0.3369087 0.11543,0.5042762 0.346291,0.5042762 m -0.453477,-6.1452174 c 0.03504,0 0.123677,-0.00935 0.265903,-0.028039 0.799768,0 1.651068,0.2806123 2.555961,0.8418371 0.105122,0.074775 0.158716,0.1121582 0.158716,0.1121582 0.515316,-0.8792237 0.904894,-1.3187264 1.170796,-1.3187264 0.568907,0.3366918 0.939934,0.7014221 1.117202,1.0944103 0.08863,0.1869303 0.222616,0.5799177 0.399883,1.178529 0.142228,-0.037388 0.284454,-0.056077 0.426682,-0.056077 1.4902896,0 2.9084362,0.9633425 4.2564994,2.8908958 1.6139652,2.2257718 2.421979,5.2557783 2.421979,9.0921923 0,0.858574 -0.035042,1.636725 -0.1071858,2.327932 H -15.040656 c 0.03711,-1.254171 0.469967,-2.440961 1.304777,-3.564714 0.08863,-0.147805 0.212309,-0.317346 0.373087,-0.504277 0.655481,-0.878137 1.055365,-1.551953 1.197591,-2.019279 0.07008,-0.243443 0.123675,-0.495582 0.158717,-0.758588 -1.170794,0.486887 -2.048891,1.206352 -2.634289,2.160564 -0.265902,0.467325 -0.558601,0.954212 -0.878096,1.458489 -0.08863,0.149978 -0.222616,0.226055 -0.399884,0.226055 -0.443171,0 -0.663724,-0.291263 -0.663724,-0.871615 -0.179329,0.243443 -0.383395,0.365165 -0.612193,0.365165 0,0 -0.17727,-0.04564 -0.533867,-0.139111 -0.762665,-0.206493 -1.302716,-0.56079 -1.62221,-1.067239 -0.107186,-0.167369 -0.222616,-0.393423 -0.346291,-0.67382 0.123675,-0.804233 0.735869,-2.404007 1.836581,-4.7971466 0.797706,-1.7214956 1.294471,-2.956321 1.49029,-3.7046929 0.01649,-0.1682375 0.0268,-0.4114634 0.0268,-0.7294623 0,-0.2619195 -0.04535,-0.7670649 -0.133982,-1.5154377 m -1.595414,9.8490415 c -0.426681,0 -0.711135,0.197798 -0.853361,0.589047 -0.03504,0.09346 -0.05154,0.186931 -0.05154,0.280395 0,0.07607 0.0268,0.169541 0.07833,0.28257 0.461722,0 0.746175,-0.206493 0.8513,-0.617305 0.01855,-0.05651 0.0268,-0.121723 0.0268,-0.197798 0,-0.03695 -0.01649,-0.149978 -0.05154,-0.336909 m 13.0642583,4.321128 v -1.03681 c 0,-3.049569 -0.735869,-5.5470413 -2.2076077,-7.4924183 C -8.4941042,5.7745813 -9.6566541,4.932961 -10.701711,4.932961 c 0,0 -0.107186,-0.018689 -0.319496,-0.056077 -0.03504,0.018689 -0.06184,0.037388 -0.08039,0.056077 -0.230861,0 -0.346292,0.1030291 -0.346292,0.3086524 0,0.074989 0.05359,0.1684544 0.160779,0.2806125 0.956424,0.093682 2.0035429,0.8131456 3.1392964,2.1607812 1.4366975,1.7584467 2.1560769,4.3037389 2.1560769,7.6337019 v 0.167368 c 0,0.823796 0.1669615,1.234609 0.5050083,1.234609 0.2844536,0 0.4431704,-0.243445 0.4782117,-0.730332" />
  </g>
</svg>
