<?xml version="1.0" encoding="UTF-8" standalone="no"?>
<!-- Created with Inkscape (http://www.inkscape.org/) -->

<svg
   xmlns:dc="http://purl.org/dc/elements/1.1/"
   xmlns:cc="http://creativecommons.org/ns#"
   xmlns:rdf="http://www.w3.org/1999/02/22-rdf-syntax-ns#"
   xmlns:svg="http://www.w3.org/2000/svg"
   xmlns="http://www.w3.org/2000/svg"
   xmlns:sodipodi="http://sodipodi.sourceforge.net/DTD/sodipodi-0.dtd"
   xmlns:inkscape="http://www.inkscape.org/namespaces/inkscape"
   viewBox="0 0 20.529023 20.118654"
   version="1.1"
   id="svg11052"
   sodipodi:docname="bP.svg"
   inkscape:version="0.92.5 (2060ec1f9f, 2020-04-08)">
  <metadata
     id="metadata11058">
    <rdf:RDF>
      <cc:Work
         rdf:about="">
        <dc:format>image/svg+xml</dc:format>
        <dc:type
           rdf:resource="http://purl.org/dc/dcmitype/StillImage" />
        <dc:title></dc:title>
      </cc:Work>
    </rdf:RDF>
  </metadata>
  <defs
     id="defs11056" />
  <sodipodi:namedview
     pagecolor="#ffffff"
     bordercolor="#666666"
     borderopacity="1"
     objecttolerance="10"
     gridtolerance="10"
     guidetolerance="10"
     inkscape:pageopacity="0"
     inkscape:pageshadow="2"
     inkscape:window-width="1437"
     inkscape:window-height="862"
     id="namedview11054"
     showgrid="false"
     inkscape:zoom="11.730407"
     inkscape:cx="10.264511"
     inkscape:cy="10.059327"
     inkscape:window-x="2017"
     inkscape:window-y="54"
     inkscape:window-maximized="0"
     inkscape:current-layer="svg11052" />
  <g
     id="layer1"
     transform="matrix(0.92295309,0,0,0.93797756,21.073421,0.97359658)">
    <path
       id="path1722"
       style="fill:#000000;stroke-width:0.20833407"
       d="m -17.076828,17.979184 c -0.01598,-0.223799 -0.02597,-0.662705 -0.02597,-1.318891 0,-2.355318 0.671181,-4.104425 2.011545,-5.245147 0.395517,-0.354166 0.87693,-0.68226 1.444238,-0.982106 -0.669183,-0.223799 -1.124628,-0.7756916 -1.366333,-1.6535035 -0.06792,-0.2824649 -0.103874,-0.5714478 -0.103874,-0.8712946 0,-1.2515345 0.593277,-2.1402102 1.779829,-2.6640735 -0.309622,-0.5610176 -0.463434,-1.0940062 -0.463434,-1.5987483 0,-0.8415263 0.377538,-1.4681632 1.134615,-1.8794746 0.34358,-0.1870782 0.713129,-0.2805088 1.108646,-0.2805088 0.858953,0 1.496174,0.3645964 1.9076722,1.0940062 0.1897683,0.3178815 0.2836536,0.6731342 0.2836536,1.0659772 0,0.5423316 -0.1458214,1.0751026 -0.4374658,1.5987483 0.6352248,0.2805088 1.090669,0.6542314 1.3663326,1.1213839 0.2756636,0.506263 0.4134957,1.0190447 0.4134957,1.5426896 0,0.9734162 -0.3096227,1.712169 -0.9288668,2.2162591 -0.1558098,0.149924 -0.3276004,0.252046 -0.515371,0.308539 1.5820692,0.879984 2.6048213,2.029397 3.0682555,3.45041 0.2417052,0.786555 0.3615589,1.712169 0.3615589,2.776843 0,0.656186 -0.00999,1.095092 -0.025971,1.318891 H -17.076828"
       inkscape:connector-curvature="0" />
  </g>
</svg>
