<?xml version="1.0" encoding="UTF-8" standalone="no"?>
<!-- Created with Inkscape (http://www.inkscape.org/) -->

<svg
   xmlns:dc="http://purl.org/dc/elements/1.1/"
   xmlns:cc="http://creativecommons.org/ns#"
   xmlns:rdf="http://www.w3.org/1999/02/22-rdf-syntax-ns#"
   xmlns:svg="http://www.w3.org/2000/svg"
   xmlns="http://www.w3.org/2000/svg"
   xmlns:sodipodi="http://sodipodi.sourceforge.net/DTD/sodipodi-0.dtd"
   xmlns:inkscape="http://www.inkscape.org/namespaces/inkscape"
   width="20.698622mm"
   height="22.476349mm"
   viewBox="0 0 20.698623 22.476349"
   version="1.1"
   id="svg849"
   inkscape:version="0.92.5 (2060ec1f9f, 2020-04-08)"
   sodipodi:docname="wK.svg">
  <defs
     id="defs843" />
  <sodipodi:namedview
     id="base"
     pagecolor="#ffffff"
     bordercolor="#666666"
     borderopacity="1.0"
     inkscape:pageopacity="0.0"
     inkscape:pageshadow="2"
     inkscape:zoom="5.6"
     inkscape:cx="81.187524"
     inkscape:cy="36.914464"
     inkscape:document-units="mm"
     inkscape:current-layer="layer1"
     showgrid="false"
     fit-margin-top="0"
     fit-margin-left="0"
     fit-margin-right="0"
     fit-margin-bottom="0"
     inkscape:window-width="1920"
     inkscape:window-height="1057"
     inkscape:window-x="1920"
     inkscape:window-y="0"
     inkscape:window-maximized="1" />
  <metadata
     id="metadata846">
    <rdf:RDF>
      <cc:Work
         rdf:about="">
        <dc:format>image/svg+xml</dc:format>
        <dc:type
           rdf:resource="http://purl.org/dc/dcmitype/StillImage" />
        <dc:title></dc:title>
      </cc:Work>
    </rdf:RDF>
  </metadata>
  <g
     inkscape:label="Layer 1"
     inkscape:groupmode="layer"
     id="layer1"
     transform="translate(21.825368,1.1278866)">
    <path
       inkscape:connector-curvature="0"
       id="path1721"
       style="fill:#000000;stroke-width:0.22159189"
       d="m -11.474853,19.458583 c -3.746051,0 -5.647069,-0.646672 -5.703489,-1.942262 -0.09426,-1.778347 -0.385977,-3.121088 -0.875391,-4.028225 -0.206875,-0.368244 -0.498598,-0.812829 -0.875172,-1.333759 -0.639869,-0.871211 -0.997417,-1.605452 -1.072644,-2.2049712 -0.01881,-0.1526864 -0.02843,-0.3188445 -0.02843,-0.4917392 0,-1.2170003 0.498818,-2.1735355 1.496452,-2.8696054 0.244708,-0.1549321 0.498818,-0.2806742 0.762113,-0.3772252 0.997636,-0.3659982 1.985648,-0.3098633 2.964476,0.1751403 0.357549,0.1728948 0.715097,0.4041698 1.072863,0.6938244 l 0.02821,0.029194 c 0,-0.4041698 0.01881,-0.8397753 0.05642,-1.3045701 0,-0.1347232 0.06647,-0.3188448 0.19769,-0.5501198 0.301783,-0.5029672 0.658238,-0.8981556 1.073736,-1.1878102 0.07436,-0.038173 0.148706,-0.08757 0.225246,-0.14595 V 3.2244332 l -1.15683,-0.6938243 V 1.4865034 h 1.043122 l 0.367389,-1.10248519 h 0.846305 l 0.367388,1.10248519 h 1.0453084 v 1.0441057 l -1.1568364,0.6938243 v 0.6960708 c 0.9775161,0.6376894 1.476115,1.2753798 1.495796,1.9130702 0.037178,0.3862064 0.056857,0.8128297 0.056857,1.2753799 l 0.026242,-0.029193 c 1.1874529,-1.0238967 2.4295762,-1.3517236 3.7285576,-0.9857253 0.3389599,0.096552 0.658238,0.242502 0.9600215,0.4356055 1.0540555,0.6578984 1.5898306,1.632397 1.6073253,2.9279857 0,0.7724128 -0.376136,1.6907758 -1.1284079,2.7528438 -0.6210618,0.889174 -1.0059451,1.53809 -1.1568368,1.942261 -0.3214651,0.871209 -0.5095332,1.991658 -0.5663909,3.363589 -0.037176,1.29559 -1.9375373,1.942262 -5.7010848,1.942262 m 0,-9.7696815 0.817876,-1.3337603 c 0.131211,-0.2896546 0.236179,-0.5591011 0.310532,-0.8105851 0.03717,-0.1347231 0.05686,-0.4153966 0.05686,-0.8397744 0,-1.1406574 -0.38707,-1.7109854 -1.156837,-1.7109854 -0.811317,0 -1.215882,0.570328 -1.215882,1.7109854 0,0.4243778 0.01968,0.7050513 0.05686,0.8397744 0.150891,0.5209305 0.470171,1.1406576 0.960022,1.8546908 0.113715,0.1347232 0.170573,0.2312751 0.170573,0.2896546 m 7.538028,-0.058378 c 0,-0.8689655 -0.282102,-1.5358452 -0.8484928,-1.9983954 -0.47017,-0.4064152 -1.0256266,-0.6085001 -1.6641831,-0.6085001 -0.8091298,0 -1.6860513,0.4243787 -2.626391,1.2753798 -1.1109141,0.9857253 -1.7407241,2.3172412 -1.8916151,3.9990362 0,0.134723 0.347707,0.289655 1.0453087,0.464795 0.8091294,0.154933 2.1824637,0.231275 4.1221881,0.231275 l 1.2705523,-1.740176 c 0.3936307,-0.617481 0.5926329,-1.158619 0.5926329,-1.6234145 m -7.538037,3.9137105 c -0.47017,0.213311 -1.902548,0.397434 -4.291886,0.552365 -0.357766,0.01797 -0.64949,0.03817 -0.875391,0.05614 0.188286,0.734241 0.310749,1.547072 0.36717,2.436245 1.298544,-0.424378 2.897559,-0.63769 4.800107,-0.63769 1.9375384,0 3.5383032,0.213312 4.7979213,0.63769 0.056856,-0.965517 0.1793205,-1.778347 0.3673885,-2.436245 L -10.486402,13.80695 c -0.358642,-0.05838 -0.688854,-0.145951 -0.988451,-0.262711 M -19.01354,9.6305255 c 0,0.5995185 0.461204,1.5089005 1.383394,2.7258995 0.225899,0.289656 0.385757,0.502968 0.48001,0.63769 h 0.508002 c 1.938631,0 3.350016,-0.134722 4.235685,-0.406415 0.282102,-0.07634 0.422059,-0.172895 0.422059,-0.289654 -0.150891,-1.681796 -0.7807,-3.0133107 -1.890958,-3.999036 -0.922189,-0.8510012 -1.797361,-1.27538 -2.625516,-1.27538 -0.263514,0 -0.545835,0.056139 -0.846962,0.1728947 -0.752929,0.1931037 -1.260931,0.7050521 -1.524445,1.5358452 l -0.141269,0.7836404 v 0.1145152 m 7.538683,8.7839555 c 1.769152,0 2.9915932,-0.114515 3.6695133,-0.348035 0.1683864,-0.05838 0.2536726,-0.125741 0.2536726,-0.202084 0,-0.502968 -1.2989812,-0.754451 -3.8947579,-0.754451 -0.999383,0 -1.968152,0.06737 -2.908711,0.20433 -0.696507,0.114514 -1.044652,0.298637 -1.044652,0.550121 0,0.289655 1.110477,0.473776 3.332303,0.550119 h 0.592632" />
    <path
       style="fill:#ffffff;fill-opacity:0.78326996;stroke-width:0.17857143"
       d="m 38.053886,38.950268 c -1.323755,-2.001903 -2.40819,-4.091337 -2.917014,-5.620352 -0.336855,-1.012249 -0.37182,-1.447612 -0.309343,-3.851751 0.07702,-2.963688 0.335858,-3.916726 1.36064,-5.009809 1.41257,-1.506717 4.191067,-1.615705 5.72209,-0.224452 1.33202,1.210417 2.009614,4.982053 1.444377,8.039705 -0.330025,1.785265 -1.943567,5.014546 -4.000252,8.005945 -0.184719,0.26867 -0.349345,0.09913 -1.300498,-1.339286 z"
       id="path9851"
       inkscape:connector-curvature="0"
       transform="matrix(0.26458333,0,0,0.26458333,-21.825368,-1.1278866)" />
    <path
       style="fill:#ffffff;fill-opacity:0.78326996;stroke-width:0.17857143"
       d="m 16.295432,51.386602 c -3.244764,-4.35513 -5.019432,-7.490955 -5.44751,-9.625713 -0.43918,-2.190117 0.650167,-6.031549 2.232762,-7.873526 0.898318,-1.04555 2.179966,-1.809763 4.036255,-2.406713 4.32854,-1.391981 8.329565,-0.01631 13.12801,4.513814 3.698133,3.491336 5.735192,7.460839 6.622114,12.904138 0.303021,1.859734 0.302244,1.912823 -0.03279,2.237809 -0.366811,0.355809 -2.162611,0.929584 -3.914606,1.250753 -2.397453,0.439495 -6.142938,0.736452 -10.535714,0.835318 l -4.642857,0.104493 z"
       id="path9853"
       inkscape:connector-curvature="0"
       transform="matrix(0.26458333,0,0,0.26458333,-21.825368,-1.1278866)" />
    <path
       style="fill:#ffffff;fill-opacity:0.78326996;stroke-width:0.17857143"
       d="m 51.526041,53.090334 c -3.621147,-0.200093 -6.368098,-0.584064 -8.091564,-1.131047 -1.71648,-0.544766 -2.366458,-0.991267 -2.285307,-1.569891 0.682613,-4.8672 1.682421,-7.744332 3.801322,-10.939006 1.795267,-2.70673 5.554433,-5.947199 8.504889,-7.331367 2.006711,-0.941424 2.890165,-1.154936 4.778807,-1.154936 2.58435,0 4.806307,0.926822 6.665496,2.780311 1.731406,1.726095 2.573554,3.885757 2.573554,6.599796 0,2.754261 -0.871273,4.623045 -4.410098,9.459179 l -2.482711,3.392857 -3.205382,0.02009 c -1.762959,0.01105 -4.395012,-0.04564 -5.849006,-0.125987 z"
       id="path9855"
       inkscape:connector-curvature="0"
       transform="matrix(0.26458333,0,0,0.26458333,-21.825368,-1.1278866)" />
    <path
       style="fill:#ffffff;fill-opacity:0.78326996;stroke-width:0.17857143"
       d="m 20.961261,65.6647 c -0.203308,-2.160878 -0.665003,-5.266208 -0.978786,-6.583246 l -0.305635,-1.28284 2.246413,-0.121593 c 6.343961,-0.343385 13.380644,-1.108779 15.854651,-1.724543 1.459973,-0.363377 1.469543,-0.363437 2.593168,-0.01638 1.628903,0.503117 2.971371,0.662454 10.992353,1.304674 5.883416,0.471071 7.176513,0.62093 7.099079,0.822722 -0.263388,0.686376 -0.820993,3.953042 -0.998063,5.847027 -0.110184,1.178571 -0.232876,2.314527 -0.27265,2.524346 l -0.07231,0.381488 -1.469839,-0.427324 C 51.506429,65.184479 47.417276,64.69473 40.59824,64.586354 c -5.958176,-0.09469 -9.686702,0.138085 -13.71853,0.856476 -1.81203,0.322867 -4.761371,1.031985 -5.506924,1.324045 -0.253209,0.09919 -0.313747,-0.06295 -0.411523,-1.10217 z"
       id="path9857"
       inkscape:connector-curvature="0"
       transform="matrix(0.26458333,0,0,0.26458333,-21.825368,-1.1278866)" />
    <path
       style="fill:#ffffff;fill-opacity:0.78326996;stroke-width:0.17857143"
       d="m 33.544666,73.626887 c -6.133008,-0.361168 -9.107142,-0.988677 -9.107142,-1.921503 0,-0.907666 1.756884,-1.629033 5.037518,-2.068379 7.876917,-1.054883 19.34163,-0.722145 22.779662,0.661131 1.070295,0.430627 1.734834,1.122411 1.547403,1.610845 -0.51188,1.333942 -11.27626,2.246801 -20.257441,1.717906 z"
       id="path9859"
       inkscape:connector-curvature="0"
       transform="matrix(0.26458333,0,0,0.26458333,-21.825368,-1.1278866)" />
  </g>
</svg>
