<?xml version="1.0" encoding="UTF-8" standalone="no"?>
<!-- Created with Inkscape (http://www.inkscape.org/) -->

<svg
   xmlns:dc="http://purl.org/dc/elements/1.1/"
   xmlns:cc="http://creativecommons.org/ns#"
   xmlns:rdf="http://www.w3.org/1999/02/22-rdf-syntax-ns#"
   xmlns:svg="http://www.w3.org/2000/svg"
   xmlns="http://www.w3.org/2000/svg"
   xmlns:sodipodi="http://sodipodi.sourceforge.net/DTD/sodipodi-0.dtd"
   xmlns:inkscape="http://www.inkscape.org/namespaces/inkscape"
   width="23.672279mm"
   height="22.066252mm"
   viewBox="0 0 23.672281 22.066252"
   version="1.1"
   id="svg849"
   inkscape:version="0.92.5 (2060ec1f9f, 2020-04-08)"
   sodipodi:docname="wN.svg">
  <defs
     id="defs843" />
  <sodipodi:namedview
     id="base"
     pagecolor="#ffffff"
     bordercolor="#666666"
     borderopacity="1.0"
     inkscape:pageopacity="0.0"
     inkscape:pageshadow="2"
     inkscape:zoom="2.8"
     inkscape:cx="140.27484"
     inkscape:cy="-44.75749"
     inkscape:document-units="mm"
     inkscape:current-layer="layer1"
     showgrid="false"
     fit-margin-top="0"
     fit-margin-left="0"
     fit-margin-right="0"
     fit-margin-bottom="0"
     inkscape:window-width="1920"
     inkscape:window-height="1057"
     inkscape:window-x="1920"
     inkscape:window-y="0"
     inkscape:window-maximized="1" />
  <metadata
     id="metadata846">
    <rdf:RDF>
      <cc:Work
         rdf:about="">
        <dc:format>image/svg+xml</dc:format>
        <dc:type
           rdf:resource="http://purl.org/dc/dcmitype/StillImage" />
        <dc:title></dc:title>
      </cc:Work>
    </rdf:RDF>
  </metadata>
  <g
     inkscape:label="Layer 1"
     inkscape:groupmode="layer"
     id="layer1"
     transform="translate(22.98368,1.1184432)">
    <path
       inkscape:connector-curvature="0"
       id="path1693"
       style="fill:#000000;stroke-width:0.23376836"
       d="m -18.283652,11.714756 c 0.278606,0 0.416758,0.194616 0.416758,0.581477 0,0.512648 -0.246371,0.766599 -0.743717,0.766599 -0.198018,0 -0.297027,-0.163762 -0.297027,-0.488915 0,-0.571983 0.20953,-0.859161 0.623986,-0.859161 m 2.141353,-3.7380634 c -0.278606,0 -0.416758,-0.1732564 -0.416758,-0.5197683 0,-0.5529959 0.317749,-1.0015639 0.950946,-1.3480767 0.278606,-0.1447751 0.536489,-0.2159762 0.773651,-0.2159762 0.416757,0 0.644708,0.1447749 0.68385,0.4295797 0,0.469928 -0.356892,0.9184961 -1.070676,1.3480768 -0.356892,0.2041095 -0.66313,0.3061647 -0.921013,0.3061647 m 0.237161,-5.7601769 c 0.08059,0.2871784 0.119731,0.4794212 0.119731,0.5814763 0,0.061706 -0.02992,0.2254704 -0.0898,0.4912879 0.31775,0 0.752927,-0.1637623 1.307838,-0.4912879 -0.534188,-0.2848048 -0.980879,-0.479421 -1.337771,-0.5814763 m -3.536687,10.5401513 c 0.119732,0.491288 0.435177,0.847294 0.950945,1.072764 0.198018,0.0807 0.386825,0.123416 0.56412,0.123416 h 0.05987 c 0.03914,0 0.257882,-0.123416 0.653919,-0.367873 0.11973,-0.08307 0.21874,-0.123416 0.297025,-0.123416 h 0.119732 c 0.09901,0 0.147362,0.06171 0.147362,0.185124 l -0.177295,0.581476 c 0,0.182751 0.138152,0.275312 0.416759,0.275312 0.03914,0 0.287816,-0.358379 0.741415,-1.072766 0.872659,-1.388422 2.111419,-2.439826 3.716284,-3.156586 0.158874,-1.1012452 0.55491,-2.0719551 1.190408,-2.9097557 0.156572,-0.2254704 0.315447,-0.3370188 0.474321,-0.3370188 0.179598,0 0.267095,0.1329093 0.267095,0.3987268 0,0.061706 -0.177295,0.6431844 -0.534188,1.7468025 -0.138152,0.4699279 -0.207228,0.8164405 -0.207228,1.0419112 0,0.05933 0.01843,0.192243 0.05756,0.396353 0,1.452504 -0.594054,2.973837 -1.78216,4.56637 -0.792069,1.103619 -1.229551,1.981768 -1.307836,2.634446 h 9.8087806 c 0.080585,-0.939856 0.1197313,-1.632882 0.1197313,-2.083823 0,-4.207991 -1.2779041,-7.5663142 -3.8360159,-10.0797163 C -8.4725685,4.9126673 -9.0965545,4.5447946 -9.5731779,4.5447946 H -11.35764 c -0.156573,-0.080697 -0.315446,-0.4889143 -0.474321,-1.2246607 -0.119731,-0.593343 -0.267094,-0.9612158 -0.446692,-1.1036182 -0.23716,0.7357455 -0.971667,1.3077287 -2.198915,1.7159486 -0.653919,0.2041104 -1.109821,0.4082208 -1.367703,0.6123303 -0.218741,0.7167591 -0.861148,2.1668901 -1.931825,4.350394 -1.049953,2.1668894 -1.604863,3.4532574 -1.664729,3.8614784 m 16.6449945,6.189758 H -15.251219 c 0.08059,-1.409784 0.594054,-2.75786 1.547301,-4.044228 0.732204,-1.020551 1.167382,-1.644748 1.307837,-1.870219 0.276303,-0.448567 0.444389,-0.989696 0.504253,-1.623387 -1.287113,0.571983 -2.288715,1.388423 -3.002499,2.451694 l -0.416758,0.704893 c -0.297026,0.488914 -0.483532,0.766599 -0.56412,0.825933 -0.119731,0.102056 -0.246371,0.154269 -0.386825,0.154269 -0.614777,0 -1.029232,-0.213603 -1.247972,-0.643183 -0.03914,-0.06171 -0.05987,-0.13291 -0.05987,-0.215977 -0.198018,0.104428 -0.396035,0.154269 -0.594052,0.154269 -0.950947,0 -1.703873,-0.612331 -2.258783,-1.839365 0.158875,-0.897134 0.990087,-2.971464 2.495942,-6.2182381 0.158875,-0.3061647 0.278607,-0.5529959 0.356893,-0.7357454 0.594054,-1.3694367 0.893383,-2.399481 0.893383,-3.0948793 0,-0.1020557 -0.05987,-0.6740384 -0.179598,-1.7159487 h 0.237161 c 1.070676,0 2.090697,0.3465121 3.062365,1.0419103 0.534188,-0.9612158 0.980879,-1.4406369 1.337771,-1.4406369 0.633195,0.3465119 1.070676,0.8378007 1.307836,1.4714909 l 0.326961,1.0110571 c 0.198017,-0.040348 0.366102,-0.061706 0.506556,-0.061706 1.5841411,0 3.1498623,1.041911 4.6948602,3.1257332 1.8051838,2.4303341 2.7054734,5.7601779 2.7054734,9.9895289 0,0.958843 -0.039143,1.818004 -0.1197312,2.572736" />
    <path
       style="fill:#ffffff;fill-opacity:0.78326996;stroke-width:0.35714287"
       d="m 35.148367,70.532497 c 0.450271,-1.868504 2.243371,-5.281729 4.549814,-8.660715 5.06851,-7.425468 6.310794,-10.595682 6.717629,-17.142857 0.226766,-3.649353 0.514381,-5.20733 1.575584,-8.534761 0.714,-2.238762 1.203678,-4.368226 1.088175,-4.732143 -0.312097,-0.983322 -1.773121,-0.818646 -2.827749,0.318723 -1.414408,1.525376 -3.365019,5.518678 -4.089794,8.372649 l -0.658232,2.591949 -3.337418,1.973935 c -4.039562,2.389221 -8.02432,6.193573 -10.67135,10.18822 -2.421446,3.654214 -2.819527,4.101425 -3.439195,3.863635 -0.390753,-0.149946 -0.455254,-0.6008 -0.277576,-1.9402 0.218614,-1.647996 0.18604,-1.744864 -0.586741,-1.744864 -0.450012,0 -1.536434,0.420911 -2.414271,0.935357 -1.441466,0.844757 -1.728348,0.895725 -2.961711,0.5262 -1.706991,-0.511425 -3.315297,-1.8409 -3.881959,-3.208943 -0.386051,-0.93201 -0.290897,-1.405025 0.862626,-4.28816 0.713097,-1.782331 3.157487,-7.140075 5.431977,-11.906099 2.27449,-4.766024 4.744241,-10.172465 5.488335,-12.014313 0.744094,-1.841848 1.579669,-3.575586 1.856834,-3.852751 0.277164,-0.277164 1.943589,-1.039176 3.703167,-1.693358 5.267426,-1.958344 6.866497,-2.967503 8.487734,-5.356529 0.838813,-1.23606 0.91917,-1.274665 1.273832,-0.611973 0.208197,0.389021 0.630435,1.793455 0.938305,3.120965 0.30787,1.32751 0.782055,2.945671 1.053744,3.595915 l 0.49398,1.18226 3.857509,0.0035 c 5.205578,0.0047 6.632592,0.667498 10.995406,5.106913 9.731539,9.902403 14.522436,24.144348 13.585643,40.386184 l -0.25975,4.503403 H 53.307304 34.911691 Z M 18.764942,52.914686 c 0.793372,-0.876668 0.901797,-3.176079 0.190194,-4.033507 -0.658378,-0.793297 -2.031117,-0.730005 -2.894582,0.13346 -0.517241,0.517243 -0.714285,1.190475 -0.714285,2.440475 0,0.949408 0.107142,1.833336 0.238095,1.964286 0.530811,0.530811 2.530632,0.213464 3.180578,-0.504714 z m 9.660011,-19.073555 c 2.683323,-1.121164 5.135601,-3.823142 5.135601,-5.658528 0,-1.013052 -1.06732,-1.667964 -2.718309,-1.667964 -1.964273,0 -3.953302,0.976127 -5.440505,2.669958 -0.929562,1.058714 -1.1269,1.583574 -1.1269,2.997232 0,0.942569 0.107143,1.820906 0.238095,1.951858 0.418647,0.418647 2.60036,0.25549 3.912018,-0.292556 z"
       id="path8659"
       inkscape:connector-curvature="0"
       transform="matrix(0.26458333,0,0,0.26458333,-22.98368,-1.1184432)" />
  </g>
</svg>
