<?xml version="1.0" encoding="UTF-8" standalone="no"?>
<!-- Created with Inkscape (http://www.inkscape.org/) -->

<svg
   xmlns:dc="http://purl.org/dc/elements/1.1/"
   xmlns:cc="http://creativecommons.org/ns#"
   xmlns:rdf="http://www.w3.org/1999/02/22-rdf-syntax-ns#"
   xmlns:svg="http://www.w3.org/2000/svg"
   xmlns="http://www.w3.org/2000/svg"
   xmlns:sodipodi="http://sodipodi.sourceforge.net/DTD/sodipodi-0.dtd"
   xmlns:inkscape="http://www.inkscape.org/namespaces/inkscape"
   width="23.672279mm"
   height="22.066252mm"
   viewBox="0 0 23.672281 22.066252"
   version="1.1"
   id="svg849"
   inkscape:version="0.92.5 (2060ec1f9f, 2020-04-08)"
   sodipodi:docname="wR.svg">
  <defs
     id="defs843" />
  <sodipodi:namedview
     id="base"
     pagecolor="#ffffff"
     bordercolor="#666666"
     borderopacity="1.0"
     inkscape:pageopacity="0.0"
     inkscape:pageshadow="2"
     inkscape:zoom="5.6"
     inkscape:cx="73.942949"
     inkscape:cy="47.800102"
     inkscape:document-units="mm"
     inkscape:current-layer="layer1"
     showgrid="false"
     fit-margin-top="0"
     fit-margin-left="0"
     fit-margin-right="0"
     fit-margin-bottom="0"
     inkscape:window-width="1920"
     inkscape:window-height="1057"
     inkscape:window-x="1920"
     inkscape:window-y="0"
     inkscape:window-maximized="1" />
  <metadata
     id="metadata846">
    <rdf:RDF>
      <cc:Work
         rdf:about="">
        <dc:format>image/svg+xml</dc:format>
        <dc:type
           rdf:resource="http://purl.org/dc/dcmitype/StillImage" />
        <dc:title></dc:title>
      </cc:Work>
    </rdf:RDF>
  </metadata>
  <g
     inkscape:label="Layer 1"
     inkscape:groupmode="layer"
     id="layer1"
     transform="translate(22.98368,1.1184432)">
    <path
       inkscape:connector-curvature="0"
       id="path1705"
       style="fill:#000000;stroke-width:0.24602129"
       d="m -14.448297,6.7553649 v 5.8747731 h 6.9307221 V 6.7553649 h -6.9307221 m -3.585423,12.8782201 -0.576776,-0.629898 v -2.290776 l 3.100462,-3.419451 V 6.6550956 L -18.186743,4.0995049 V 1.078561 l 0.88282,-0.92813696 h 2.735564 l 0.515566,0.56305296 v 0.8638615 h 0.88282 V 0.713477 l 0.515566,-0.56305296 h 3.3429431 L -8.7935435,0.713477 v 0.8638615 h 0.849861 V 0.713477 l 0.5461706,-0.56305296 h 2.7355628 L -3.7791292,1.078561 V 4.0995049 L -6.4534837,6.6550956 V 13.29346 l 3.0981077,3.419451 v 2.290776 l -0.576776,0.629898 H -18.03372 m 0.487317,-2.622435 v 1.295792 H -4.4171136 V 17.01115 H -17.546403 m 2.978044,-3.28576 -2.005767,2.12366 h 11.1847341 l -2.00812,-2.12366 h -7.1708471 m 2.431873,-12.1814749 v 0.8638615 l -0.456713,0.4627829 h -1.97516 L -15.025072,2.4077766 V 1.4770684 h -1.702075 l -0.395503,0.4653541 v 1.8588451 l 2.066974,1.8254209 h 8.14548 L -4.8432212,3.8012676 V 1.9424225 L -5.2387243,1.4770684 h -1.7020762 v 0.9307082 l -0.4567114,0.4627829 h -1.975161 L -9.8270308,2.4077766 V 1.5439151 h -2.3094552" />
    <path
       style="fill:#ffffff;fill-opacity:0.78326996;stroke-width:0.17857143"
       d="m 26.14699,22.001085 -3.954041,-3.491676 0.0012,-3.427966 0.0012,-3.427967 0.727027,-0.848214 0.727027,-0.8482147 h 3.200392 3.200391 v 1.7477847 1.747784 l 0.854348,0.841501 0.854349,0.841502 3.833151,-0.0023 3.833152,-0.0023 0.848215,-0.967219 0.848214,-0.96722 v -1.530527 -1.530527 h 4.285714 4.285715 v 1.658498 1.658499 l 0.854348,0.841501 0.854348,0.841502 h 3.749966 3.749966 l 0.9314,-0.943115 0.9314,-0.943116 v -1.64617 -1.6461707 h 3.145381 3.14538 l 0.686582,0.7589287 0.68658,0.758928 1.79e-4,3.571429 1.79e-4,3.571429 -3.876759,3.429434 -3.876808,3.429435 -15.28703,0.0081 -15.28703,0.0081 z"
       id="path11017"
       inkscape:connector-curvature="0"
       transform="matrix(0.26458333,0,0,0.26458333,-22.98368,-1.1184432)" />
    <path
       style="fill:#ffffff;fill-opacity:0.78326996;stroke-width:0.17857143"
       d="M 32.37152,40.849904 V 29.778476 H 45.407234 58.442949 V 40.849904 51.921333 H 45.407234 32.37152 Z"
       id="path11019"
       inkscape:connector-curvature="0"
       transform="matrix(0.26458333,0,0,0.26458333,-22.98368,-1.1184432)" />
    <path
       style="fill:#ffffff;fill-opacity:0.78326996;stroke-width:0.17857143"
       d="m 25.067384,63.394547 c 0.344019,-0.368303 2.017042,-2.13616 3.71783,-3.928571 l 3.09234,-3.258929 h 13.508695 13.508692 l 3.712129,3.928572 3.712129,3.928571 H 45.380547 24.441896 Z"
       id="path11021"
       inkscape:connector-curvature="0"
       transform="matrix(0.26458333,0,0,0.26458333,-22.98368,-1.1184432)" />
    <path
       style="fill:#ffffff;fill-opacity:0.78326996;stroke-width:0.17857143"
       d="m 20.585806,70.93919 v -2.410714 h 24.732143 24.732142 v 2.410714 2.410714 H 45.317949 20.585806 Z"
       id="path11023"
       inkscape:connector-curvature="0"
       transform="matrix(0.26458333,0,0,0.26458333,-22.98368,-1.1184432)" />
  </g>
</svg>
