<?xml version="1.0" encoding="UTF-8" standalone="no"?>
<!-- Created with Inkscape (http://www.inkscape.org/) -->

<svg xmlns="http://www.w3.org/2000/svg"
   viewBox="0 0 22.135043 23.772812">
  <defs
     id="defs843" />

  <g
     id="layer1"
     transform="translate(-50.760181,-25.982017)">
    <path
       id="path1731"
       style="fill:#000000;stroke-width:0.19096678"
       d="m 60.870957,40.321062 c -0.794592,0 -1.190982,0.139023 -1.190982,0.415054 0,0.243792 0.351141,0.390874 1.051612,0.44326 h 1.285102 c 1.558412,0 2.336713,-0.147082 2.336713,-0.44326 0,-0.276031 -0.396391,-0.415054 -1.190982,-0.415054 h -2.291463 m 0,-1.613872 c -0.684181,0 -1.066092,0.08664 -1.143922,0.261927 -0.03077,0.03425 -0.04706,0.08664 -0.04706,0.155141 0,0.191408 0.162901,0.304239 0.490511,0.33849 0.40544,0.05238 1.020842,0.07858 1.846203,0.07858 0.825361,0 1.448002,-0.0262 1.869733,-0.07858 0.31132,-0.03425 0.466981,-0.147082 0.466981,-0.33849 0,-0.278045 -0.396391,-0.417068 -1.190983,-0.417068 h -2.291463 m 4.347627,1.120241 0.46698,2.002732 c 0,0.606462 -0.553861,0.96107 -1.659772,1.065841 0.810881,0.346549 1.565652,0.519824 2.267933,0.519824 0.09231,0 0.552051,-0.0262 1.377412,-0.07858 0.685991,0 1.247092,0.398935 1.683303,1.196804 0.06154,0.139023 0.13937,0.296179 0.23349,0.469454 l -0.84165,1.430524 c -0.249781,0.34655 -0.514041,0.572209 -0.794592,0.674965 -0.06154,-0.362668 -0.5611,-0.588328 -1.495062,-0.674965 l -0.5611,-0.05238 c -1.916793,-0.173275 -3.209135,-0.632654 -3.878836,-1.378138 -0.608161,0.711232 -1.534882,1.118225 -2.780164,1.220982 -0.28055,0.03627 -0.646171,0.08664 -1.098672,0.157156 -1.136681,0.10477 -1.799142,0.286104 -1.985573,0.546016 -0.03258,0.05238 -0.05611,0.11283 -0.07059,0.181334 -0.40544,-0.189393 -0.787351,-0.62258 -1.145731,-1.29956 -0.13937,-0.278045 -0.304081,-0.546016 -0.490511,-0.805928 0.42173,-0.868389 0.872421,-1.388213 1.355692,-1.561487 0.17195,-0.0685 0.35838,-0.104771 0.5611,-0.104771 0,0 0.459741,0.0262 1.377413,0.07858 0.716761,0 1.473342,-0.173275 2.267933,-0.519824 -1.105911,-0.104771 -1.659772,-0.45938 -1.659772,-1.065841 0,-0.05238 0.12489,-0.495646 0.37467,-1.327767 0.07783,-0.27603 0.11584,-0.467438 0.11584,-0.57221 -0.950251,-1.28344 -1.424472,-2.417785 -1.424472,-3.407062 0,-1.144419 0.504991,-2.184872 1.518592,-3.121361 0.903192,-0.849651 1.558412,-1.300567 1.962043,-1.35255 -0.34209,-0.468244 -0.514041,-0.953816 -0.514041,-1.456716 0,-0.814995 0.367431,-1.317894 1.098672,-1.508698 0.17195,-0.05198 0.351141,-0.07797 0.537571,-0.07797 0.778301,0 1.285101,0.32076 1.518592,0.962481 l 0.11765,0.546218 v 0.07797 c 0,0.485573 -0.17195,0.971144 -0.514041,1.456716 0.295031,0.08664 0.738481,0.355414 1.332163,0.806332 1.431712,1.109763 2.148473,2.331753 2.148473,3.667579 0,1.005396 -0.466981,2.107503 -1.400942,3.304307 M 62.436609,37.407631 V 36.210827 H 63.25473 V 35.22155 h -0.818121 v -1.11742 h -0.839841 v 1.11742 h -0.818121 v 0.989277 h 0.818121 v 1.196804 h 0.839841 m -0.41992,-7.33536 c -0.311321,0 -0.506802,0.156149 -0.584631,0.468244 l -0.02353,0.156149 c 0,0.329423 0.15566,0.537554 0.468791,0.624191 0.04525,0.01733 0.09231,0.02599 0.13937,0.02599 0.38915,0 0.584631,-0.216795 0.584631,-0.650183 0,-0.416262 -0.195481,-0.624393 -0.584631,-0.624393" />
  </g>
</svg>
