<?xml version="1.0" encoding="UTF-8" standalone="no"?>
<!-- Created with Inkscape (http://www.inkscape.org/) -->

<svg
   xmlns="http://www.w3.org/2000/svg"
   viewBox="0 0 20.733013 22.407295">
  <g
     id="layer1"
     transform="translate(-18.359684,-14.409448)">
    <path
       id="text1061"
       style="fill:#000000;stroke-width:0.23104398"
       d="m 29.347927,27.60329 c 0,0.354304 -0.248266,0.533757 -0.749439,0.533757 -0.55686,0 -0.83761,-0.179453 -0.83761,-0.533757 0,-1.644983 -0.549898,-2.981676 -1.647374,-4.010079 -0.97868,-0.871955 -1.927196,-1.306783 -2.845781,-1.306783 -1.357808,0 -2.206553,0.533756 -2.546005,1.603571 l -0.119956,0.800636 v 0.05982 c 0,0.791433 0.58911,1.891156 1.76733,3.29687 0.319498,0.356604 0.58911,0.634986 0.808837,0.832844 0.319499,0.257677 0.848746,0.386514 1.587512,0.386514 0.778907,0 2.037176,-0.149544 3.77504,-0.446331 1.756426,0.296787 3.0256,0.446331 3.802883,0.446331 0.75872,0 1.287736,-0.128837 1.587048,-0.386514 0.839928,-0.733916 1.538322,-1.624277 2.097501,-2.673385 0.320194,-0.593575 0.480291,-1.079017 0.480291,-1.456329 0,-1.246966 -0.570781,-2.029195 -1.707701,-2.346689 -0.299311,-0.07822 -0.619505,-0.117334 -0.958261,-0.117334 -0.918817,0 -1.858517,0.44403 -2.816778,1.336693 -1.118358,0.98929 -1.677537,2.31678 -1.677537,3.980169 m 6.501328,-2.852839 c 0,0.791433 -0.549899,1.723207 -1.647375,2.793021 l -0.779602,0.653393 -0.299312,0.177151 c -0.38052,0.05982 -0.779602,0.08973 -1.197246,0.08973 -1.239011,0 -1.858517,-0.248473 -1.858517,-0.743118 0.03945,-1.525348 0.498852,-2.712496 1.378225,-3.563747 0.758721,-0.752321 1.538324,-1.129631 2.336487,-1.129631 1.018588,0 1.668257,0.368107 1.946686,1.099722 l 0.120654,0.623483 m -2.846942,7.543918 c 0,-0.513052 -1.466395,-0.770727 -4.403825,-0.770727 -0.798166,0 -1.505841,0.02991 -2.125578,0.08742 l -0.719044,0.05982 c -1.078218,0.138041 -1.617443,0.338201 -1.617443,0.593575 0,0.299088 0.269613,0.446332 0.808838,0.446332 l 3.625384,-0.296788 3.594059,0.296788 c 0.55918,0 0.837609,-0.138041 0.837609,-0.416423 m 1.677538,0.713209 c -0.03945,1.345896 -2.07662,2.019994 -6.109206,2.019994 -3.994767,0 -6.021734,-0.674098 -6.081597,-2.019994 -0.01995,-1.267669 -0.209749,-2.395001 -0.569156,-3.386592 -0.219727,-0.533757 -0.638995,-1.217058 -1.258036,-2.047602 -0.778907,-1.049108 -1.168244,-1.980882 -1.168244,-2.793021 0,-1.267672 0.54897,-2.247759 1.647374,-2.940263 0.619042,-0.395947 1.307922,-0.594035 2.066875,-0.594035 1.03831,0 2.026967,0.376391 2.965505,1.127791 0,-0.909917 0.08979,-1.53363 0.269613,-1.870218 0.139679,-0.376391 0.598623,-0.831695 1.378226,-1.366372 V 18.4542 l -1.22857,-0.742658 v -1.069125 h 1.107917 l 0.359638,-1.099032 h 1.018588 l 0.389801,1.099032 h 1.078915 v 1.069125 L 29.347927,18.4542 v 0.683071 c 0.75872,0.554463 1.229729,1.029782 1.408389,1.425729 l 0.208822,0.861373 c 0.02088,0.23766 0.04177,0.554463 0.06033,0.949488 0.9397,-0.7514 1.907242,-1.127791 2.904948,-1.127791 1.338781,0 2.378251,0.504998 3.116089,1.514305 0.419965,0.593574 0.628787,1.267673 0.628787,2.019993 0,0.812139 -0.389801,1.753116 -1.167084,2.82293 l -0.689113,0.95018 c -0.740158,1.108926 -1.118358,2.592861 -1.13924,4.454108 M 21.290874,24.750451 c 0,-0.830544 0.419268,-1.366601 1.258037,-1.603571 0.239681,-0.07822 0.489108,-0.119634 0.748743,-0.119634 0.838769,0 1.637629,0.37731 2.39635,1.129631 0.858723,0.871956 1.308154,2.059105 1.347598,3.563747 0.02088,0.437129 -0.43899,0.683301 -1.377529,0.743118 h -0.4492 c -0.399546,0 -0.808837,-0.0299 -1.228106,-0.08973 -0.659181,-0.315192 -1.318131,-0.940976 -1.977081,-1.870449 -0.479363,-0.692503 -0.718812,-1.276875 -0.718812,-1.753116" />
  </g>
</svg>
