<?xml version="1.0" encoding="UTF-8" standalone="no"?>
<!-- Created with Inkscape (http://www.inkscape.org/) -->

<svg
   xmlns:dc="http://purl.org/dc/elements/1.1/"
   xmlns:cc="http://creativecommons.org/ns#"
   xmlns:rdf="http://www.w3.org/1999/02/22-rdf-syntax-ns#"
   xmlns:svg="http://www.w3.org/2000/svg"
   xmlns="http://www.w3.org/2000/svg"
   xmlns:sodipodi="http://sodipodi.sourceforge.net/DTD/sodipodi-0.dtd"
   xmlns:inkscape="http://www.inkscape.org/namespaces/inkscape"
   width="23.672279mm"
   height="22.066252mm"
   viewBox="0 0 23.672281 22.066252"
   version="1.1"
   id="svg849"
   inkscape:version="0.92.5 (2060ec1f9f, 2020-04-08)"
   sodipodi:docname="bQ.svg">
  <defs
     id="defs843" />
  <sodipodi:namedview
     id="base"
     pagecolor="#ffffff"
     bordercolor="#666666"
     borderopacity="1.0"
     inkscape:pageopacity="0.0"
     inkscape:pageshadow="2"
     inkscape:zoom="2.8"
     inkscape:cx="210.27484"
     inkscape:cy="-44.75749"
     inkscape:document-units="mm"
     inkscape:current-layer="layer1"
     showgrid="false"
     fit-margin-top="0"
     fit-margin-left="0"
     fit-margin-right="0"
     fit-margin-bottom="0"
     inkscape:window-width="1920"
     inkscape:window-height="1057"
     inkscape:window-x="1920"
     inkscape:window-y="0"
     inkscape:window-maximized="1" />
  <metadata
     id="metadata846">
    <rdf:RDF>
      <cc:Work
         rdf:about="">
        <dc:format>image/svg+xml</dc:format>
        <dc:type
           rdf:resource="http://purl.org/dc/dcmitype/StillImage" />
        <dc:title></dc:title>
      </cc:Work>
    </rdf:RDF>
  </metadata>
  <g
     inkscape:label="Layer 1"
     inkscape:groupmode="layer"
     id="layer1"
     transform="translate(22.98368,1.1184432)">
    <path
       inkscape:connector-curvature="0"
       id="path1742"
       style="fill:#000000;stroke-width:0.21665466"
       d="m -15.639449,16.378445 c 0,0.308836 0.207646,0.463254 0.622937,0.463254 l 1.86881,-0.145466 c -0.0021,0 0.541137,-0.02686 1.623411,-0.08504 h 0.406902 l 3.1671197,0.172322 0.6502035,0.05819 c 0.4152912,0 0.6229368,-0.154419 0.6229368,-0.463254 0,-0.557247 -1.2102174,-0.866083 -3.628555,-0.92427 h -0.838972 c -2.0408,0 -3.404129,0.16337 -4.089989,0.492347 -0.270568,0.114135 -0.404804,0.259601 -0.404804,0.431923 M -19.024703,4.30252 c -0.341881,0 -0.560014,0.1830634 -0.650203,0.548966 -0.01678,0.057965 -0.02727,0.1157019 -0.02727,0.1734412 0,0.3659026 0.17199,0.5970822 0.515968,0.6933138 0.05244,0.019243 0.106969,0.028868 0.161502,0.028868 0.434168,0 0.650204,-0.2405785 0.650204,-0.7221838 0,-0.4816045 -0.216036,-0.7224072 -0.650204,-0.7224072 m 3.546756,-1.8201167 c -0.469824,0 -0.70264,0.2408024 -0.70264,0.7224071 0,0.481381 0.232816,0.7221834 0.70264,0.7221834 0.434168,0 0.650203,-0.2408024 0.650203,-0.7221834 0,-0.4816047 -0.216035,-0.7224071 -0.650203,-0.7224071 m 8.6393157,0 c -0.3083223,0 -0.5159679,0.1638172 -0.6229369,0.4912279 l -0.027267,0.2311792 c 0,0.481381 0.2160353,0.7221834 0.6502034,0.7221834 0.4509476,0 0.6753726,-0.2408024 0.6753726,-0.7221834 0,-0.4816047 -0.224425,-0.7224071 -0.6753726,-0.7224071 m 3.5194883,1.8201167 c -0.4341681,0 -0.6502034,0.2408027 -0.6502034,0.7224072 0,0.4816053 0.2160353,0.7221838 0.6502034,0.7221838 0.4509476,0 0.6774701,-0.2405785 0.6774701,-0.7221838 0,-0.3659035 -0.1719892,-0.5970822 -0.5159679,-0.6933138 -0.054533,-0.019471 -0.1069689,-0.029097 -0.1615022,-0.029097 M -5.2697568,18.112843 c 0,0.539344 -0.9291617,0.915319 -2.7874851,1.127922 l -2.6280791,0.172321 h -0.486605 c -2.202302,0 -3.880246,-0.201414 -5.035931,-0.606482 -0.560014,-0.174559 -0.84107,-0.405066 -0.84107,-0.693761 0,-0.559485 0.144723,-1.19506 0.434169,-1.906725 0.199256,-0.42297 0.297835,-0.722854 0.297835,-0.895176 0,-0.367022 -0.415292,-1.078687 -1.245874,-2.139471 -0.450947,-0.557246 -0.713126,-0.942173 -0.784439,-1.154777 0,-0.116372 -0.05453,-0.375974 -0.163599,-0.781042 l -0.352369,-1.4434701 c -0.232815,-0.9444103 -0.388025,-1.94477 -0.459337,-3.0055537 -0.830583,-0.3652319 -1.245874,-0.952691 -1.245874,-1.7617067 0,-0.6933138 0.297835,-1.1845418 0.893506,-1.47346 0.199255,-0.096231 0.415291,-0.1445709 0.650203,-0.1445709 0.59567,0 1.038228,0.2889181 1.327674,0.8667545 0.125846,0.2504258 0.188768,0.5008507 0.188768,0.7512764 L -17.644596,6.12286 c 0,0.8674257 0.57889,1.9259713 1.734575,3.1769801 0.09019,-0.7877555 0.134236,-1.6157932 0.134236,-2.4841138 0,-1.2899493 -0.216036,-2.1085872 -0.650204,-2.4552445 -0.03566,-0.038494 -0.07131,-0.067582 -0.10697,-0.086832 -0.325101,-0.2117094 -0.488701,-0.5874597 -0.488701,-1.1268033 0,-0.7125601 0.308323,-1.2037881 0.920772,-1.4734599 0.199257,-0.096231 0.406903,-0.1443472 0.622937,-0.1443472 0.631327,0 1.084372,0.3081645 1.354941,0.9244933 0.106969,0.2119329 0.161502,0.4431122 0.161502,0.6933138 l -0.188769,1.2425043 c 0,1.0786875 0.497091,2.7262588 1.489176,4.9395825 0.379634,-1.8104936 0.568403,-3.1964504 0.568403,-4.1596602 0,-0.8087915 -0.136333,-1.5504449 -0.406901,-2.2245125 -0.106969,-0.2504256 -0.161502,-0.4431122 -0.161502,-0.5778363 0,-0.712784 0.297835,-1.2037881 0.893506,-1.47345986 0.199255,-0.0964553 0.406901,-0.14457101 0.622936,-0.14457101 0.631327,0 1.073884,0.31778757 1.3255758,0.95336257 0.090189,0.211933 0.136333,0.4334891 0.136333,0.6646683 0,0.038492 -0.1531124,0.5489668 -0.4593368,1.5311989 -0.07341,0.2504258 -0.109067,0.6740677 -0.109067,1.2711499 0,0.9632098 0.188769,2.3491666 0.5684038,4.1596602 0.9753052,-2.1954199 1.461909,-3.8416488 1.461909,-4.9395825 L -8.38234,3.1759404 v -0.029093 c 0,-0.7125602 0.3062248,-1.2037881 0.920772,-1.4734599 0.1971584,-0.096231 0.404804,-0.1443472 0.6229368,-0.1443472 0.6313266,0 1.0822742,0.3081644 1.3528427,0.9244932 0.1090664,0.2119329 0.1615022,0.4431122 0.1615022,0.6933139 0,0.5393437 -0.1615022,0.924717 -0.4866039,1.1556721 -0.5054808,0.3468814 -0.7571724,1.1943894 -0.7571724,2.5423005 0,0.8481795 0.044046,1.6672657 0.1342355,2.4550204 C -5.2781429,8.0488313 -4.7013495,6.9902857 -4.7013495,6.12286 L -4.8355851,5.0249272 c 0,-0.6740677 0.2894454,-1.1556729 0.8662388,-1.444591 0.199256,-0.1154777 0.4152913,-0.1734403 0.6502035,-0.1734403 0.6502035,0 1.1095408,0.3081643 1.3801093,0.9247167 l 0.1635996,0.5487435 v 0.1445711 c 0,0.7705225 -0.4152913,1.3579816 -1.2458737,1.7617066 -0.1090665,1.3293358 -0.4152913,2.9563185 -0.9207721,4.8831852 -0.035656,0.154417 -0.054533,0.270791 -0.054533,0.346881 0,0.134276 -0.1342356,0.355833 -0.4069016,0.664668 l -0.3230042,0.43416 c -0.8683363,1.058546 -1.300407,1.790353 -1.300407,2.19542 0,0.114135 0.2160353,0.711665 0.6502034,1.790352 0.071312,0.384926 0.106969,0.722855 0.106969,1.011549 M -11.144656,1.5867789 c -0.343979,0 -0.560013,0.1830636 -0.650203,0.5489669 -0.01887,0.057739 -0.02727,0.1154777 -0.02727,0.1734403 0,0.3659033 0.171989,0.5970825 0.51387,0.6933139 0.05453,0.019246 0.109067,0.028869 0.1636,0.028869 0.432071,0 0.650203,-0.2408024 0.650203,-0.7221834 0,-0.3468807 -0.153112,-0.5778361 -0.461434,-0.6935377 -0.05453,-0.019246 -0.117457,-0.028869 -0.188769,-0.028869 M -6.2702307,12.85369 c 0,-0.615434 -1.6255086,-0.92427 -4.8744283,-0.92427 -3.267796,0 -4.901695,0.317788 -4.901695,0.953363 0,0.27079 0.234912,0.405066 0.704737,0.405066 0.541137,0 1.218607,-0.04699 2.030312,-0.143227 l 1.759745,-0.05819 h 0.434168 c 0.505481,0 1.4619085,0.04699 2.8692844,0.143229 l 1.3276735,0.05818 c 0.4320707,0 0.6502034,-0.143228 0.6502034,-0.43416" />
  </g>
</svg>
