<?xml version="1.0" encoding="UTF-8" standalone="no"?>
<!-- Created with Inkscape (http://www.inkscape.org/) -->

<svg
   xmlns:dc="http://purl.org/dc/elements/1.1/"
   xmlns:cc="http://creativecommons.org/ns#"
   xmlns:rdf="http://www.w3.org/1999/02/22-rdf-syntax-ns#"
   xmlns:svg="http://www.w3.org/2000/svg"
   xmlns="http://www.w3.org/2000/svg"
   xmlns:sodipodi="http://sodipodi.sourceforge.net/DTD/sodipodi-0.dtd"
   xmlns:inkscape="http://www.inkscape.org/namespaces/inkscape"
   width="23.672279mm"
   height="22.066252mm"
   viewBox="0 0 23.672281 22.066252"
   version="1.1"
   id="svg849"
   inkscape:version="0.92.5 (2060ec1f9f, 2020-04-08)"
   sodipodi:docname="wB.svg">
  <defs
     id="defs843" />
  <sodipodi:namedview
     id="base"
     pagecolor="#ffffff"
     bordercolor="#666666"
     borderopacity="1.0"
     inkscape:pageopacity="0.0"
     inkscape:pageshadow="2"
     inkscape:zoom="2.8"
     inkscape:cx="140.27484"
     inkscape:cy="-44.75749"
     inkscape:document-units="mm"
     inkscape:current-layer="layer1"
     showgrid="false"
     fit-margin-top="0"
     fit-margin-left="0"
     fit-margin-right="0"
     fit-margin-bottom="0"
     inkscape:window-width="1920"
     inkscape:window-height="1057"
     inkscape:window-x="1920"
     inkscape:window-y="0"
     inkscape:window-maximized="1" />
  <metadata
     id="metadata846">
    <rdf:RDF>
      <cc:Work
         rdf:about="">
        <dc:format>image/svg+xml</dc:format>
        <dc:type
           rdf:resource="http://purl.org/dc/dcmitype/StillImage" />
        <dc:title></dc:title>
      </cc:Work>
    </rdf:RDF>
  </metadata>
  <g
     inkscape:label="Layer 1"
     inkscape:groupmode="layer"
     id="layer1"
     transform="translate(22.98368,1.1184432)">
    <path
       inkscape:connector-curvature="0"
       id="path1700"
       style="fill:#000000;stroke-width:0.20843469"
       d="m -11.36091,11.827875 c -1.210828,0 -2.154147,-0.054 -2.829958,-0.16632 0.120682,0.2592 0.181021,0.483841 0.181021,0.669601 0,0.278641 -0.05029,0.50976 -0.154873,0.695522 0.500824,-0.166321 1.436097,-0.250562 2.80381,-0.250562 1.3677119,0 2.302985,0.08423 2.8038086,0.250562 -0.102578,-0.185762 -0.1548731,-0.416881 -0.1548731,-0.695522 0,-0.22464 0.052293,-0.447121 0.1548731,-0.669601 -0.8125812,0.11232 -1.7478556,0.16632 -2.8038086,0.16632 m 0,-10.0936926 c -0.364053,0 -0.613459,0.1771207 -0.752242,0.5292014 -0.03419,0.092879 -0.05229,0.1857597 -0.05229,0.2786399 0,0.4104002 0.191077,0.6782411 0.571221,0.8100014 0.06839,0.017283 0.146828,0.028083 0.233315,0.028083 0.398246,0 0.657708,-0.1965604 0.778389,-0.5853608 0.0181,-0.075597 0.02615,-0.1598405 0.02615,-0.2527208 0,-0.3715202 -0.172975,-0.6220807 -0.518926,-0.7516809 -0.102579,-0.03672 -0.199123,-0.056159 -0.28561,-0.056159 m 0,11.8519344 c -0.657709,0 -1.506495,0.0648 -2.544347,0.194401 -0.293656,0.03672 -0.466632,0.213839 -0.518926,0.5292 0,0.224639 0.474677,0.362881 1.428052,0.41904 -0.08649,-0.01944 -0.05229,-0.02808 0.102579,-0.02808 h 1.532642 c 2.02542,0 3.0391359,-0.129599 3.0391359,-0.39096 0,-0.42768 -0.5028358,-0.658801 -1.5064942,-0.695521 h -0.7542537 c -0.223258,0 -0.414336,-0.0108 -0.57122,-0.02808 h -0.207168 m -0.02615,-2.566084 c 1.9389324,0 3.1256238,-0.1944 3.558062,-0.58536 0.2936553,-0.241929 0.5108801,-0.8834494 0.6496623,-1.9245702 C -7.2658167,7.5813141 -7.8289917,6.6892331 -8.8668437,5.8338719 -9.8363143,5.0152308 -10.6851,4.5594701 -11.413205,4.4665906 c -0.6738,0.092879 -1.496438,0.5486402 -2.465904,1.3672813 -1.021762,0.8553612 -1.57488,1.7474422 -1.661368,2.6762439 0.12068,0.9676809 0.311758,1.5811212 0.571221,1.8403222 0.06839,0.0756 0.146828,0.1404 0.233316,0.1944 0.432438,0.31752 1.548731,0.4752 3.348882,0.4752 M -11.827541,9.6527568 V 8.4258753 H -12.71052 V 7.3393941 h 0.882979 V 6.140592 h 0.935273 v 1.1988021 h 0.880967 v 1.0864812 h -0.880967 v 1.2268815 h -0.935273 m 0.414336,5.6894472 c -0.154874,0 -0.613459,0.326161 -1.375757,0.976322 -0.537029,0.39096 -1.401905,0.622081 -2.596641,0.69768 -0.864877,0 -1.556778,0.04535 -2.077715,0.13824 -0.553119,0.1296 -0.830684,0.382321 -0.830684,0.753841 0.05229,0.371521 0.233315,0.557281 0.545073,0.557281 l 1.377768,-0.22248 c 0.89907,0 1.842389,-0.13176 2.829958,-0.390962 1.124339,-0.315359 1.852444,-0.818639 2.180293,-1.505521 0.468642,0.984962 1.6794688,1.578962 3.6365038,1.784163 0,0 0.2232591,0.03672 0.673799,0.11232 h 0.6758106 l 1.4019048,0.22248 c 0.3117576,0 0.4927783,-0.18576 0.5450735,-0.557281 0,-0.37152 -0.277565,-0.624241 -0.8306837,-0.753841 l -2.777662,-0.222484 c -0.8829788,-0.0756 -1.7317642,-0.44712 -2.546358,-1.116721 -0.362042,-0.315361 -0.639606,-0.473041 -0.830683,-0.473041 m 0.05229,2.425683 c -0.673799,0.725762 -1.695561,1.170722 -3.063272,1.339202 -0.55513,0.05616 -1.524597,0.18576 -2.908399,0.39096 -0.364053,0.07344 -0.571221,0.25056 -0.623516,0.529201 -0.327848,-0.09288 -0.812582,-0.669601 -1.4542,-1.730162 -0.154872,-0.2592 -0.267508,-0.436321 -0.337905,-0.529201 0.571221,-1.170722 1.281225,-1.756082 2.130011,-1.756082 l 1.532642,0.08424 c 0.707992,0 1.540686,-0.177121 2.49205,-0.531361 -1.228929,-0.16632 -1.844398,-0.56592 -1.844398,-1.198801 l 0.520936,-2.118963 v -0.05616 c -1.039862,-1.226881 -1.558788,-2.378163 -1.558788,-3.4581642 0,-1.2268813 0.563174,-2.3414427 1.687514,-3.3458436 0.987569,-0.8920818 1.713662,-1.365122 2.180293,-1.4212823 -0.380143,-0.5032806 -0.57122,-1.0238413 -0.57122,-1.5616816 0,-0.8553611 0.398245,-1.3953623 1.194737,-1.61784201 0.191077,-0.0561587 0.398245,-0.0842402 0.623515,-0.0842402 0.848786,0 1.401905,0.34344091 1.6613676,1.03248111 l 0.130737,0.5853609 v 0.08424 c 0,0.5767203 -0.1810207,1.0972811 -0.5450726,1.5616816 0.4666307,0.056159 1.2027815,0.5378411 2.20644,1.4493617 1.1082495,0.9849612 1.6613682,2.0908829 1.6613682,3.3177642 0,1.0411213 -0.5189261,2.1945634 -1.5567779,3.4581644 0,0.261361 0.086488,0.632881 0.2594625,1.116721 0.1729756,0.594002 0.2594634,0.948243 0.2594634,1.058402 0,0.632881 -0.6154703,1.032482 -1.8443995,1.198802 0.9352731,0.354241 1.7659568,0.531361 2.4940625,0.531361 l 1.5306303,-0.08424 c 0.8487862,0 1.5587894,0.585361 2.1300105,1.756083 L -3.8565979,19.2194 c -0.2936559,0.40824 -0.5973686,0.67824 -0.9091262,0.807841 -0.068387,-0.371521 -0.5712212,-0.604802 -1.5044829,-0.697682 0.1206805,0 -0.1387828,-0.02808 -0.7804007,-0.08423 -2.1642024,-0.222481 -3.6003003,-0.714961 -4.3103033,-1.477442" />
    <path
       style="fill:#ffffff;fill-opacity:0.78326996;stroke-width:0.35714287"
       d="m 37.13865,45.411514 c -5.398494,-0.51954 -7.018831,-1.573129 -8.090906,-5.260937 -1.423368,-4.896214 -0.215037,-8.226345 4.644173,-12.799231 3.221501,-3.031677 6.044856,-4.901411 8.531211,-5.649694 1.375844,-0.414068 1.805648,-0.39679 3.378985,0.135837 4.641377,1.571262 10.706533,6.667062 12.661272,10.637701 1.323124,2.687646 1.43951,4.527053 0.492555,7.784465 -0.712911,2.45233 -2.021726,3.903198 -4.002084,4.436453 -3.690804,0.99383 -11.448376,1.308889 -17.615206,0.715406 z m 8.564761,-6.932589 v -2.321428 h 1.785715 1.785714 v -2.142858 -2.142857 h -1.785714 -1.785715 v -2.321428 -2.321429 h -1.785714 -1.785714 v 2.321429 2.321428 h -1.785714 -1.785715 v 2.142857 2.142858 h 1.785715 1.785714 v 2.321428 2.321429 h 1.785714 1.785714 z"
       id="path9235"
       inkscape:connector-curvature="0"
       transform="matrix(0.26458333,0,0,0.26458333,-22.98368,-1.1184432)" />
    <path
       style="fill:#ffffff;fill-opacity:0.78326996;stroke-width:0.35714287"
       d="m 41.937178,15.995159 c -2.634186,-2.634185 1.233105,-6.6708862 3.947712,-4.120645 1.847759,1.735879 0.563902,4.997268 -1.967193,4.997268 -0.695847,0 -1.427935,-0.324038 -1.980519,-0.876623 z"
       id="path9237"
       inkscape:connector-curvature="0"
       transform="matrix(0.26458333,0,0,0.26458333,-22.98368,-1.1184432)" />
    <path
       style="fill:#ffffff;fill-opacity:0.78326996;stroke-width:0.35714287"
       d="m 33.860115,50.889286 -0.120989,-2.053218 h 10.178571 10.178572 l -0.12099,2.053218 -0.12099,2.053218 -3.093296,-0.267503 c -1.701313,-0.147128 -4.780796,-0.267504 -6.843296,-0.267504 -2.0625,0 -5.141983,0.120376 -6.843296,0.267504 l -3.093296,0.267503 z"
       id="path9239"
       inkscape:connector-curvature="0"
       transform="matrix(0.26458333,0,0,0.26458333,-22.98368,-1.1184432)" />
    <path
       style="fill:#ffffff;fill-opacity:0.78326996;stroke-width:0.35714287"
       d="M 34.301384,59.253755 C 32.472286,58.7704 32.217057,58.351036 33.102385,57.28369 c 0.526709,-0.634997 1.274393,-0.835726 4.326759,-1.161592 5.362941,-0.57254 14.918301,-0.291993 16.355989,0.480215 1.310386,0.703832 1.710425,1.486681 1.042826,2.040739 -1.167604,0.969026 -17.34884,1.450446 -20.526575,0.610703 z"
       id="path9241"
       inkscape:connector-curvature="0"
       transform="matrix(0.26458333,0,0,0.26458333,-22.98368,-1.1184432)" />
    <path
       style="fill:#ffffff;fill-opacity:0.78326996;stroke-width:0.35714287"
       d=""
       id="path9243"
       inkscape:connector-curvature="0"
       transform="matrix(0.26458333,0,0,0.26458333,-22.98368,-1.1184432)" />
    <path
       style="fill:#ffffff;fill-opacity:0.78326996;stroke-width:0.35714287"
       d="m 19.009612,73.621604 c -0.873534,-0.323141 -1.309191,-1.441952 -0.973426,-2.499855 0.448131,-1.411937 2.796306,-2.054245 8.941809,-2.445895 8.279125,-0.527624 9.072357,-0.77673 13.81941,-4.339832 1.880998,-1.411863 2.972031,-2.00937 3.392857,-1.858107 0.341161,0.122627 1.582212,0.936795 2.757891,1.809262 4.479678,3.324352 6.085851,3.824407 14.488758,4.510838 6.195129,0.506077 7.941325,0.997368 8.3724,2.355565 0.3221,1.014842 -0.115985,2.147099 -0.950132,2.455669 -0.390493,0.144453 -2.184393,0.06243 -3.986446,-0.182266 -1.802057,-0.244699 -5.205207,-0.691751 -7.562561,-0.993449 -6.791738,-0.86922 -10.536794,-2.501267 -12.531364,-5.461008 l -0.754185,-1.119136 -1.305964,1.562352 c -2.537958,3.03621 -7.491,4.750231 -15.994715,5.535037 -2.230936,0.205893 -4.712054,0.502931 -5.513596,0.660086 -0.801543,0.157154 -1.791874,0.161987 -2.200736,0.01074 z"
       id="path9270"
       inkscape:connector-curvature="0"
       transform="matrix(0.26458333,0,0,0.26458333,-22.98368,-1.1184432)" />
  </g>
</svg>
