<?xml version="1.0" encoding="UTF-8" standalone="no"?>
<!-- Created with Inkscape (http://www.inkscape.org/) -->

<svg
   xmlns:dc="http://purl.org/dc/elements/1.1/"
   xmlns:cc="http://creativecommons.org/ns#"
   xmlns:rdf="http://www.w3.org/1999/02/22-rdf-syntax-ns#"
   xmlns:svg="http://www.w3.org/2000/svg"
   xmlns="http://www.w3.org/2000/svg"
   xmlns:sodipodi="http://sodipodi.sourceforge.net/DTD/sodipodi-0.dtd"
   xmlns:inkscape="http://www.inkscape.org/namespaces/inkscape"
   width="23.672279mm"
   height="22.066252mm"
   viewBox="0 0 23.672281 22.066252"
   version="1.1"
   id="svg849"
   inkscape:version="0.92.5 (2060ec1f9f, 2020-04-08)"
   sodipodi:docname="wP.svg">
  <defs
     id="defs843" />
  <sodipodi:namedview
     id="base"
     pagecolor="#ffffff"
     bordercolor="#666666"
     borderopacity="1.0"
     inkscape:pageopacity="0.0"
     inkscape:pageshadow="2"
     inkscape:zoom="7.9195959"
     inkscape:cx="62.163713"
     inkscape:cy="44.702861"
     inkscape:document-units="mm"
     inkscape:current-layer="layer1"
     showgrid="false"
     fit-margin-top="0"
     fit-margin-left="0"
     fit-margin-right="0"
     fit-margin-bottom="0"
     inkscape:window-width="1920"
     inkscape:window-height="1057"
     inkscape:window-x="1920"
     inkscape:window-y="0"
     inkscape:window-maximized="1" />
  <metadata
     id="metadata846">
    <rdf:RDF>
      <cc:Work
         rdf:about="">
        <dc:format>image/svg+xml</dc:format>
        <dc:type
           rdf:resource="http://purl.org/dc/dcmitype/StillImage" />
        <dc:title></dc:title>
      </cc:Work>
    </rdf:RDF>
  </metadata>
  <g
     inkscape:label="Layer 1"
     inkscape:groupmode="layer"
     id="layer1"
     transform="translate(22.98368,1.1184432)">
    <path
       style="fill:#000000;stroke-width:0.83684731"
       d="M 42.195312 9.7304688 C 40.670901 9.7304688 39.242435 10.069718 37.927734 10.738281 C 34.806321 12.379304 33.242188 14.922999 33.242188 18.361328 C 33.242188 20.453847 33.799303 22.581291 34.904297 24.751953 C 30.185886 26.913935 27.830078 30.508559 27.830078 35.509766 C 27.830078 36.707971 27.998894 37.862362 28.345703 38.982422 C 29.249056 42.420754 31.016572 44.59202 33.662109 45.486328 C 31.089162 46.910284 28.976236 48.367912 27.306641 49.861328 C 22.305929 54.419722 19.804688 61.287497 19.804688 70.482422 C 19.804688 73.026441 19.84564 74.746313 19.910156 75.640625 L 64.375 75.640625 C 64.447552 74.668168 64.480469 72.948295 64.480469 70.482422 C 64.480469 65.845886 63.892692 61.887512 62.707031 58.605469 C 60.835813 53.300365 56.778234 48.924659 50.527344 45.486328 C 51.220992 45.260581 51.841908 44.93001 52.398438 44.478516 C 55.108501 42.464137 56.462891 39.469054 56.462891 35.509766 C 56.462891 30.430414 54.068348 26.844472 49.277344 24.751953 C 50.527521 22.511829 51.148438 20.375702 51.148438 18.361328 C 51.148438 16.789768 50.768191 15.374004 50.001953 14.097656 C 48.340423 11.188969 45.736136 9.7304688 42.195312 9.7304688 z M 41.986328 13.542969 C 42.615449 13.542969 43.236109 13.655116 43.865234 13.880859 C 45.809057 14.775173 46.777344 16.189854 46.777344 18.134766 C 46.777344 19.254829 46.50184 20.227883 45.945312 21.052734 C 45.11455 22.320403 44.695312 23.588886 44.695312 24.865234 C 44.695312 25.308051 44.865805 25.724303 45.220703 26.097656 L 47.091797 27.556641 C 50.350329 29.492869 51.986328 32.184717 51.986328 35.623047 C 51.986328 36.595503 51.914461 37.419327 51.777344 38.087891 C 51.35793 39.807056 50.075407 41.301776 47.921875 42.578125 C 46.534584 43.472437 45.841797 44.287577 45.841797 45.042969 C 45.841797 46.458243 47.196442 48.030833 49.898438 49.75 C 51.842263 50.939523 53.478265 52.214736 54.792969 53.560547 C 58.75321 57.441695 60.730469 63.311038 60.730469 71.160156 L 23.554688 71.160156 C 23.554688 67.496074 23.942999 64.353713 24.701172 61.740234 C 26.088463 57.034239 29.282488 53.03204 34.283203 49.75 C 36.993264 48.030833 38.339844 46.458243 38.339844 45.042969 C 38.339844 44.365723 37.686048 43.541901 36.363281 42.578125 C 33.661286 40.858959 32.306641 38.540417 32.306641 35.623047 C 32.306641 32.262859 33.903653 29.571015 37.097656 27.556641 C 38.686592 26.653644 39.484375 25.759548 39.484375 24.865234 C 39.556968 23.962241 39.316297 22.997867 38.759766 21.947266 C 37.856409 20.080496 37.404297 18.812012 37.404297 18.134766 C 37.404297 17.535664 37.541926 16.938074 37.824219 16.347656 C 38.654985 14.472204 40.042502 13.542969 41.986328 13.542969 z "
       transform="matrix(0.26458333,0,0,0.26458333,-22.98368,-1.1184432)"
       id="path1688" />
    <path
       style="fill:#ffffff;fill-opacity:0.78326994;stroke-width:0.12626907"
       d="m 23.651681,69.336335 c 0.239528,-4.765192 0.887385,-7.698665 2.342038,-10.604659 1.801277,-3.598452 3.995996,-5.895794 8.959632,-9.378575 2.784215,-1.953571 3.926401,-3.723805 3.241773,-5.024312 -0.241018,-0.457832 -1.189308,-1.347218 -2.36311,-2.216319 -1.089507,-0.80669 -1.700152,-1.440463 -2.306083,-2.393424 -1.525752,-2.399587 -1.528944,-5.769764 -0.0081,-8.5064 0.637698,-1.147454 2.061948,-2.547909 3.774984,-3.711918 0.759266,-0.515921 1.554761,-1.156564 1.767767,-1.423649 0.369091,-0.4628 0.387188,-0.539902 0.385285,-1.641498 -0.002,-1.142569 -0.01087,-1.175533 -0.772067,-2.860521 -1.038423,-2.298659 -1.222988,-2.898741 -1.159882,-3.771163 0.107845,-1.490937 1.292151,-3.240651 2.603631,-3.846645 0.483665,-0.223486 0.826314,-0.274009 1.858351,-0.274009 1.172931,0 1.326352,0.03003 2.100653,0.41122 1.054996,0.519373 1.805764,1.244535 2.233863,2.157676 0.293638,0.626336 0.334784,0.872375 0.334784,2.001923 v 1.287824 l -0.774951,1.490096 c -0.426222,0.819553 -0.866586,1.79872 -0.978585,2.175926 -0.275735,0.928664 -0.265929,2.121378 0.02102,2.55647 0.24826,0.376431 1.707193,1.555756 2.868939,2.319101 1.01435,0.666495 2.302124,1.969008 2.867021,2.899838 0.812163,1.338268 1.144667,2.545597 1.209912,4.393211 0.03512,0.994458 -0.0018,1.916038 -0.09606,2.394903 -0.30341,1.542213 -1.229229,2.858266 -2.820981,4.010036 -0.568492,0.411354 -1.36564,0.990833 -1.771437,1.287731 -2.427076,1.775745 -1.549245,3.937636 2.740291,6.748698 0.91263,0.598072 2.113895,1.441109 2.669478,1.873414 1.375745,1.07048 3.539402,3.338852 4.343896,4.554128 2.266922,3.424433 3.481124,7.824916 3.716624,13.469704 l 0.05663,1.357392 H 42.130725 23.564409 Z"
       id="path8083"
       inkscape:connector-curvature="0"
       transform="matrix(0.26458333,0,0,0.26458333,-22.98368,-1.1184432)" />
  </g>
</svg>
