<?xml version="1.0" encoding="UTF-8" standalone="no"?>
<!-- Created with Inkscape (http://www.inkscape.org/) -->

<svg
   xmlns:dc="http://purl.org/dc/elements/1.1/"
   xmlns:cc="http://creativecommons.org/ns#"
   xmlns:rdf="http://www.w3.org/1999/02/22-rdf-syntax-ns#"
   xmlns:svg="http://www.w3.org/2000/svg"
   xmlns="http://www.w3.org/2000/svg"
   xmlns:sodipodi="http://sodipodi.sourceforge.net/DTD/sodipodi-0.dtd"
   xmlns:inkscape="http://www.inkscape.org/namespaces/inkscape"
   width="23.672279mm"
   height="22.066252mm"
   viewBox="0 0 23.672281 22.066252"
   version="1.1"
   id="svg849"
   inkscape:version="0.92.5 (2060ec1f9f, 2020-04-08)"
   sodipodi:docname="wQ.svg">
  <defs
     id="defs843" />
  <sodipodi:namedview
     id="base"
     pagecolor="#ffffff"
     bordercolor="#666666"
     borderopacity="1.0"
     inkscape:pageopacity="0.0"
     inkscape:pageshadow="2"
     inkscape:zoom="5.6"
     inkscape:cx="95.314787"
     inkscape:cy="18.661144"
     inkscape:document-units="mm"
     inkscape:current-layer="layer1"
     showgrid="false"
     fit-margin-top="0"
     fit-margin-left="0"
     fit-margin-right="0"
     fit-margin-bottom="0"
     inkscape:window-width="1920"
     inkscape:window-height="1057"
     inkscape:window-x="1920"
     inkscape:window-y="0"
     inkscape:window-maximized="1" />
  <metadata
     id="metadata846">
    <rdf:RDF>
      <cc:Work
         rdf:about="">
        <dc:format>image/svg+xml</dc:format>
        <dc:type
           rdf:resource="http://purl.org/dc/dcmitype/StillImage" />
        <dc:title></dc:title>
      </cc:Work>
    </rdf:RDF>
  </metadata>
  <g
     inkscape:label="Layer 1"
     inkscape:groupmode="layer"
     id="layer1"
     transform="translate(22.98368,1.1184432)">
    <path
       inkscape:connector-curvature="0"
       id="path1715"
       style="fill:#000000;stroke-width:0.2252536"
       d="m -11.799563,12.774352 h 1.274873 c 0.28954,0 0.6374368,0.0113 1.0436905,0.02938 l 2.8684648,0.176327 h 0.029179 c 0.3478968,0 0.5207229,-0.04974 0.5207229,-0.146939 v -0.117551 c 0,-0.583237 -1.2838512,-0.963019 -3.8537982,-1.137085 -0.464611,-0.03843 -0.86862,-0.05877 -1.216516,-0.05877 -1.894355,0 -3.353277,0.194412 -4.376767,0.583236 -0.462365,0.176327 -0.693548,0.379782 -0.693548,0.612624 v 0.117552 c 0,0.09721 0.172826,0.146939 0.520722,0.146939 l 3.882977,-0.205715 m 5.359855,1.313412 c -1.5262567,-0.194412 -3.0906699,-0.291618 -4.693239,-0.291618 -1.681128,0 -3.245541,0.09721 -4.695485,0.291618 0.233428,0.194412 0.347897,0.574193 0.347897,1.139346 0,0.368478 -0.05836,0.592278 -0.172826,0.671399 1.158159,-0.214757 2.66646,-0.321006 4.520414,-0.321006 1.8539526,0 3.3600089,0.106249 4.5204129,0.321006 -0.1167138,-0.07912 -0.1750706,-0.302921 -0.1750706,-0.671399 0,-0.565153 0.1167137,-0.944934 0.3478967,-1.139346 m -4.693239,2.509273 c -0.985335,0 -2.087382,0.04973 -3.303898,0.146939 -0.947177,0.07686 -1.420765,0.300661 -1.420765,0.671399 0,0.486031 1.575635,0.730177 4.724663,0.730177 3.1490263,0 4.7224175,-0.244146 4.7224175,-0.730177 0,-0.155981 -0.1256918,-0.300659 -0.3770752,-0.438557 -0.7339499,-0.253188 -2.1816493,-0.379781 -4.3453423,-0.379781 m 0,-15.2636114 c -0.482568,0 -0.724973,0.2351024 -0.724973,0.7007875 0,0.506376 0.242405,0.7595636 0.724973,0.7595636 0.462365,0 0.695793,-0.2531876 0.695793,-0.7595636 0,-0.4656851 -0.233428,-0.7007875 -0.695793,-0.7007875 m 0,-0.84546689 c 0.695793,0 1.1783595,0.32100574 1.447699,0.96301809 l 0.1458922,0.5832363 v 0.088163 c 0,0.1175521 -0.078557,0.3594368 -0.231183,0.7301764 -0.2715842,0.7979937 -0.4062532,1.4874784 -0.4062532,2.0707147 0,0.9539759 0.2109821,2.364594 0.6374362,4.2318541 1.0436902,-2.2176548 1.5644131,-3.8905025 1.5644131,-5.018545 l -0.175071,-1.2546374 c 0,-0.6827024 0.3007623,-1.1687325 0.9000426,-1.4603511 0.2109825,-0.1152905 0.44441,-0.1740665 0.6957934,-0.1740665 0.693549,0 1.187338,0.3097028 1.4768779,0.93363 0.1167137,0.2328426 0.1728261,0.4656851 0.1728261,0.7007876 0,0.506376 -0.1728261,0.9042429 -0.5207229,1.1958606 -0.5207228,0.5244611 -0.7923068,1.38123 -0.8102627,2.5680485 0,0.506376 0.047135,1.322454 0.1436477,2.4527572 1.2569174,-1.3043697 1.8831311,-2.364594 1.8831311,-3.1829327 L -4.3523279,4.7785884 c 0,-0.6420123 0.2895394,-1.1190003 0.8686192,-1.4309639 0.2311831,-0.1356363 0.4735886,-0.2034545 0.7249718,-0.2034545 0.6553932,0 1.1491818,0.3006607 1.4768784,0.904242 l 0.1750706,0.5538492 v 0.1763272 c 0,0.7979938 -0.44441,1.4015751 -1.3332301,1.8084841 -0.038157,0.8364248 -0.3568752,2.4821453 -0.956155,4.9326425 -0.040405,0.117551 -0.067339,0.223801 -0.087536,0.321006 0,0.273533 -0.3097403,0.739219 -0.9269764,1.401576 -0.8304631,0.836424 -1.2456946,1.487478 -1.2456946,1.955424 0,0.212497 0.231183,0.786691 0.6957935,1.720321 0.076313,0.176327 0.1144688,0.438558 0.1144688,0.788952 v 0.203454 c -0.017959,0.05877 -0.029182,0.126594 -0.029182,0.205715 v 0.02939 l 0.029182,0.02938 c 0,0.698527 -1.8629306,1.089612 -5.5910363,1.166472 h -0.724973 l -1.216516,-0.02938 h -0.02918 c -1.815796,-0.05877 -3.198406,-0.214758 -4.143337,-0.467945 -0.599281,-0.174067 -0.900044,-0.397867 -0.900044,-0.66914 0.0202,-0.02034 0.0202,-0.137896 0,-0.350394 -0.01796,-0.04069 -0.01796,-0.07912 0,-0.117551 0,-0.4476 0.145893,-0.963018 0.435433,-1.546254 0.231183,-0.467946 0.347896,-0.788952 0.347896,-0.963019 0,-0.311963 -0.163848,-0.680442 -0.493788,-1.109957 l -1.418522,-1.634418 c -0.154869,-0.212497 -0.231183,-0.418212 -0.231183,-0.612625 -0.59928,-2.4708421 -0.938198,-4.0758725 -1.014511,-4.8150902 -0.0202,-0.1559823 -0.02918,-0.3006607 -0.02918,-0.4385578 -0.88882,-0.4069091 -1.33323,-1.0104904 -1.33323,-1.8084841 0,-0.6420124 0.28954,-1.1190004 0.868619,-1.430964 0.251384,-0.1356363 0.502767,-0.2034545 0.75415,-0.2034545 0.675594,0 1.15816,0.3119636 1.4477,0.9336301 0.116714,0.2147574 0.175071,0.4475999 0.175071,0.7007884 l -0.145892,1.1370846 c 0,0.8567697 0.619481,1.9169931 1.856197,3.1829327 0.09651,-0.8567698 0.143648,-1.6751085 0.143648,-2.4527572 0,-1.0692664 -0.125692,-1.7790969 -0.377076,-2.1294907 -0.09651,-0.1378971 -0.24016,-0.2916186 -0.433186,-0.4679458 -0.347898,-0.2328417 -0.522968,-0.6216665 -0.522968,-1.1664727 0,-0.6827024 0.318718,-1.1777755 0.956154,-1.4897391 0.213227,-0.097206 0.44441,-0.1446785 0.695795,-0.1446785 0.675592,0 1.160403,0.3097029 1.449943,0.9336301 0.114469,0.2147574 0.172826,0.4476 0.172826,0.7007875 l -0.172826,1.2252487 v 0.029391 c 0,1.1076966 0.520723,2.782806 1.564413,5.018545 0.406254,-1.770054 0.608259,-3.180672 0.608259,-4.2318541 0,-0.7776487 -0.145893,-1.5168664 -0.435433,-2.2176539 -0.114469,-0.2712727 -0.172826,-0.4656851 -0.172826,-0.5832364 0,-0.6804425 0.307496,-1.16647257 0.926977,-1.45809115 0.213227,-0.11755121 0.44441,-0.17632724 0.695793,-0.17632724 M -2.75874,4.0778045 c -0.3097403,0 -0.5319449,0.1559822 -0.6666146,0.4679458 -0.020198,0.076862 -0.029182,0.1537215 -0.029182,0.2328426 0,0.3888239 0.172826,0.6329693 0.5207234,0.7301755 0.058356,0.018088 0.1167135,0.029392 0.1750707,0.029392 0.4825663,0 0.7227271,-0.2531876 0.7227271,-0.7595636 0,-0.4679458 -0.2401608,-0.7007875 -0.7227271,-0.7007875 M -6.5541778,2.2105399 c -0.3299408,0 -0.5521459,0.1650244 -0.6666151,0.4950723 l -0.029179,0.2351033 c 0,0.348133 0.1638481,0.5832363 0.4915445,0.6985276 0.058357,0.020343 0.1256917,0.029391 0.204249,0.029391 0.5005225,0 0.7519059,-0.2418855 0.7519059,-0.7279156 0,-0.4882909 -0.2513834,-0.7301756 -0.7519059,-0.7301756 m -9.2158966,0 c -0.482566,0 -0.724972,0.2418847 -0.724972,0.7301756 0,0.4860301 0.242406,0.7279156 0.724972,0.7279156 0.46461,0 0.695794,-0.2418855 0.695794,-0.7279156 0,-0.4882909 -0.231184,-0.7301756 -0.695794,-0.7301756 m -3.795442,1.8672602 c -0.482566,0 -0.724972,0.2328425 -0.724972,0.7007884 0,0.5063751 0.242406,0.7595635 0.724972,0.7595635 0.464611,0 0.695794,-0.2531884 0.695794,-0.7595635 0,-0.3300488 -0.163848,-0.5538483 -0.493789,-0.6714004 -0.05836,-0.020343 -0.125691,-0.029391 -0.202005,-0.029391 m 8.432569,1.867261 c -0.271584,1.7135386 -0.619481,2.9478294 -1.04369,3.707393 l -0.435432,0.7007889 v 0.02939 c -0.05612,-0.05877 -0.307496,-0.350394 -0.751906,-0.8771158 -0.561124,-0.6600966 -1.149182,-1.9147332 -1.768663,-3.7639083 0.03816,0.2712727 0.05836,0.5538483 0.05836,0.8454661 0,0.9155458 -0.163848,2.3261638 -0.491545,4.231855 -1.04369,-0.621666 -2.058202,-1.6140735 -3.043535,-2.9772184 0.327696,1.6751085 0.579079,2.7737644 0.754151,3.2982244 0.114469,0.388824 0.260361,0.612624 0.433187,0.6714 1.584614,-0.913285 3.680972,-1.372188 6.289075,-1.372188 2.6260591,0 4.7224176,0.458903 6.2868305,1.372188 0.3478966,-0.115291 0.7339503,-1.440006 1.1604041,-3.9696244 -1.0055335,1.4015759 -2.008823,2.3939824 -3.0143568,2.9772184 -0.3276964,-1.6931945 -0.4915445,-3.0246915 -0.4915445,-3.9967517 0,-0.2531876 0.017956,-0.6148851 0.056112,-1.0805694 -0.3860531,1.1664727 -0.8304631,2.2086118 -1.3332301,3.1218969 -0.2693394,0.4091689 -0.5678572,0.7979937 -0.897798,1.1687332 -0.1548702,0.155982 -0.2513835,0.271273 -0.2895399,0.350394 L -10.293507,9.2432843 c -0.01796,-0.076862 -0.04713,-0.1559814 -0.08754,-0.2328417 -0.152626,-0.4295157 -0.404009,-1.4490491 -0.751906,-3.0653815" />
    <path
       style="fill:#ffffff;fill-opacity:0.78326996;stroke-width:0.17857143"
       d="M 20.186909,47.930152 C 19.904832,47.485361 19.421794,46.210718 19.113492,45.097609 18.478878,42.806364 16.734658,34.851584 16.815437,34.61698 c 0.02911,-0.08453 0.6556,0.626126 1.392207,1.579244 1.690346,2.18719 5.18959,5.717345 7.053571,7.115881 1.540259,1.155647 2.751601,1.935388 2.84458,1.831056 0.08348,-0.09367 1.124791,-7.164154 1.442886,-9.797155 0.148317,-1.227679 0.32198,-3.545983 0.385919,-5.151788 l 0.116253,-2.919645 0.666109,1.848217 c 2.166114,6.0102 3.899621,9.175335 6.986323,12.756017 l 1.457356,1.690584 0.77693,-1.209907 c 1.151211,-1.792768 2.083371,-3.818871 2.796784,-6.078959 0.652637,-2.067557 1.608766,-6.182593 1.827519,-7.865382 0.06783,-0.521797 0.180272,-0.883404 0.249868,-0.803572 0.0696,0.07983 0.546379,1.983356 1.059518,4.230054 1.194916,5.231747 1.7457,6.891042 3.089668,9.307952 0.600754,1.080357 1.165304,2.060267 1.254557,2.177578 0.187489,0.246429 1.717414,-1.437257 3.518163,-3.871749 1.661534,-2.246281 4.247898,-7.612083 5.531278,-11.475472 0.220223,-0.662946 0.413945,-1.205417 0.430491,-1.20549 0.01655,-7.3e-5 0.0026,1.160588 -0.03109,2.579248 -0.03731,1.573383 0.05439,3.715038 0.235143,5.491205 0.291086,2.86045 1.424218,10.105248 1.609503,10.290534 0.05194,0.05194 0.796906,-0.381254 1.655481,-0.962651 2.027991,-1.373285 5.520694,-4.771939 7.744464,-7.535927 0.969655,-1.205212 1.763011,-2.07605 1.763011,-1.935195 0,0.370875 -0.986589,5.455861 -1.424259,7.340776 -0.790084,3.402668 -1.723925,5.944293 -2.385902,6.493684 -0.218918,0.181688 -0.583736,0.0621 -2.040118,-0.668744 -6.314989,-3.169011 -15.853934,-4.710716 -25.712221,-4.155666 -7.668851,0.431778 -13.474463,1.74726 -18.301743,4.146957 -0.973843,0.484109 -1.846513,0.880198 -1.939266,0.880198 -0.09275,0 -0.399434,-0.36392 -0.681512,-0.808711 z"
       id="path10435"
       inkscape:connector-curvature="0"
       transform="matrix(0.26458333,0,0,0.26458333,-22.98368,-1.1184432)" />
    <path
       style="fill:#ffffff;fill-opacity:0.78326996;stroke-width:0.17857143"
       d="m 26.10943,53.019013 c -0.466246,-0.187408 -0.517491,-0.68128 -0.145359,-1.400903 0.710657,-1.374259 5.230538,-2.757347 11.26143,-3.446009 2.895846,-0.330673 11.126311,-0.280843 14.732143,0.0892 8.228763,0.844453 11.960272,2.150505 11.963618,4.187344 0.0013,0.802329 -0.489666,0.829923 -7.410046,0.416447 -7.96939,-0.476151 -13.726188,-0.481112 -22.142858,-0.01908 -7.152386,0.392628 -7.684793,0.403781 -8.258928,0.173007 z"
       id="path10437"
       inkscape:connector-curvature="0"
       transform="matrix(0.26458333,0,0,0.26458333,-22.98368,-1.1184432)" />
    <path
       style="fill:#ffffff;fill-opacity:0.78326996;stroke-width:0.17857143"
       d="m 28.239669,63.545184 c 0.112783,-0.323532 0.158037,-1.31485 0.10967,-2.402386 -0.06889,-1.548989 -0.158753,-1.998831 -0.5499,-2.752749 -0.257154,-0.495652 -0.45131,-0.902106 -0.431459,-0.90323 0.01985,-0.0011 1.562878,-0.160465 3.42895,-0.35409 5.715915,-0.59309 13.187142,-0.814011 19.13648,-0.565857 4.541893,0.189447 8.466406,0.480028 11.441589,0.847165 l 0.935213,0.115405 -0.336393,0.472419 c -0.691198,0.970699 -1.028146,3.712446 -0.669702,5.449365 l 0.143325,0.694505 -0.724026,-0.115776 c -7.545295,-1.206542 -21.157485,-1.339364 -29.535722,-0.288199 -1.552938,0.194838 -2.89474,0.35425 -2.981783,0.35425 -0.08704,0 -0.07185,-0.24787 0.03376,-0.550822 z"
       id="path10439"
       inkscape:connector-curvature="0"
       transform="matrix(0.26458333,0,0,0.26458333,-22.98368,-1.1184432)" />
    <path
       style="fill:#ffffff;fill-opacity:0.78326996;stroke-width:0.17857143"
       d="m 35.470574,72.474948 c -4.541966,-0.346442 -7.163175,-0.930286 -8.019038,-1.786149 -0.577037,-0.577037 -0.554521,-1.018622 0.08773,-1.720611 1.152608,-1.25981 6.923228,-1.856328 17.88907,-1.849219 11.898698,0.0077 17.065019,0.876809 17.065019,2.870735 0,1.099198 -2.041682,1.83079 -6.517857,2.335534 -2.245159,0.253169 -17.671884,0.365802 -20.504927,0.14971 z"
       id="path10441"
       inkscape:connector-curvature="0"
       transform="matrix(0.26458333,0,0,0.26458333,-22.98368,-1.1184432)" />
  </g>
</svg>
